<svg width="10" height="11" viewBox="0 0 10 11" fill="none" xmlns="http://www.w3.org/2000/svg">
<g clip-path="url(#clip0_1_293)">
<path d="M9.9 3.35L5.23 8.01C5.17 8.08334 5.09333 8.12 5 8.12C4.90667 8.12 4.83 8.08334 4.77 8.01L0.1 3.35C0.0333333 3.28334 0 3.20834 0 3.125C0 3.04167 0.0333333 2.96 0.1 2.88L0.6 2.38C0.666667 2.31334 0.743333 2.28 0.83 2.28C0.916667 2.28 0.993333 2.31334 1.06 2.38L5 6.32L8.94 2.38C9.00667 2.31334 9.08333 2.28 9.17 2.28C9.25667 2.28 9.33333 2.31334 9.4 2.38L9.9 2.88C9.96667 2.96 10 3.04167 10 3.125C10 3.20834 9.96667 3.28334 9.9 3.35Z" fill="#333333"/>
</g>
<defs>
<clipPath id="clip0_1_293">
<rect width="10" height="10.4" fill="white" transform="matrix(1 0 0 -1 0 10.4)"/>
</clipPath>
</defs>
</svg>
