<svg width="15" height="15" viewBox="0 0 15 15" fill="none" xmlns="http://www.w3.org/2000/svg">
<g clip-path="url(#clip0_1_276)">
<g clip-path="url(#clip1_1_276)">
<path d="M7.5 0C3.35801 0 0 3.35801 0 7.5C0 11.642 3.35801 15 7.5 15C11.642 15 15 11.642 15 7.5C15 3.35801 11.642 0 7.5 0ZM12.2643 11.2992C11.7718 10.9763 11.2494 10.7015 10.7042 10.4789C11.0079 9.67402 11.1874 8.82762 11.2365 7.96875H13.5759C13.4837 9.18559 13.0266 10.3463 12.2643 11.2992ZM1.42412 7.96875H3.76348C3.8126 8.82731 3.99199 9.67341 4.29551 10.478C3.75032 10.7007 3.22788 10.9754 2.73545 11.2983C1.97338 10.3456 1.51637 9.18525 1.42412 7.96875ZM2.73574 3.70078C3.22817 4.02375 3.75061 4.29846 4.2958 4.52109C3.9921 5.32598 3.8126 6.17238 3.76348 7.03125H1.42412C1.51628 5.81441 1.97341 4.65369 2.73574 3.70078ZM7.96875 9.85723V7.96875H10.2981C10.2525 8.72328 10.0923 9.46646 9.82295 10.1728C9.2186 9.9987 8.59666 9.89287 7.96875 9.85723ZM9.43359 11.0326C9.24111 11.3983 9.02268 11.7496 8.77998 12.0841C8.53275 12.4258 8.26166 12.7497 7.96875 13.0532V10.7956C8.46371 10.8256 8.95443 10.905 9.43359 11.0326ZM7.96875 7.03125V5.14277C8.59666 5.10713 9.2186 5.0013 9.82295 4.82725C10.0923 5.53354 10.2525 6.27672 10.2981 7.03125H7.96875ZM7.96875 4.20439V1.94678C8.26208 2.25036 8.53356 2.57431 8.78115 2.91621C9.02343 3.25059 9.24147 3.60188 9.43359 3.96738C8.95443 4.09498 8.46371 4.17438 7.96875 4.20439ZM9.51943 2.3373C9.30762 2.04697 9.09609 1.79004 8.89687 1.56738C9.91085 1.80586 10.8465 2.30088 11.6142 3.00498C11.2068 3.26318 10.7773 3.48465 10.3307 3.6668C10.0975 3.20193 9.8262 2.75724 9.51943 2.3373ZM5.17705 10.1728C4.9077 9.46646 4.74746 8.72328 4.70186 7.96875H7.03125V9.85723C6.40334 9.89287 5.7814 9.9987 5.17705 10.1728ZM7.03125 10.7956V13.0535C6.73793 12.7499 6.46645 12.426 6.21885 12.0841C5.97656 11.7496 5.75852 11.3982 5.56641 11.0326C6.04557 10.905 6.53629 10.8256 7.03125 10.7956ZM4.70186 7.03125C4.74746 6.27672 4.9077 5.53354 5.17705 4.82725C5.7814 5.0013 6.40334 5.10713 7.03125 5.14277V7.03125H4.70186ZM5.56641 3.96738C5.75889 3.60174 5.97732 3.25035 6.22002 2.91592C6.46725 2.57415 6.73834 2.2503 7.03125 1.94678V4.20469C6.53628 4.17458 6.04556 4.09508 5.56641 3.96738ZM5.48174 2.3373C5.17496 2.75733 4.90362 3.20212 4.67051 3.66709C4.2239 3.48485 3.79438 3.26328 3.38701 3.00498C4.15431 2.30106 5.08957 1.80604 6.10313 1.56738C5.90391 1.79004 5.69238 2.04697 5.48057 2.3373H5.48174ZM4.66934 11.3329C4.90244 11.7979 5.17379 12.2427 5.48057 12.6627C5.69238 12.953 5.90391 13.21 6.10313 13.4326C5.08905 13.1942 4.15326 12.6992 3.38555 11.995C3.79301 11.7367 4.22263 11.5151 4.66934 11.3329ZM9.51943 12.6627C9.82621 12.2427 10.0976 11.7979 10.3307 11.3329C10.7773 11.5151 11.2068 11.7367 11.6142 11.995C10.8464 12.6992 9.91066 13.1942 8.89658 13.4326C9.09609 13.21 9.30762 12.953 9.51943 12.6627ZM11.2365 7.03125C11.1874 6.17269 11.008 5.32659 10.7045 4.52197C11.2497 4.29934 11.7721 4.02463 12.2646 3.70166C13.0266 4.65436 13.4836 5.81475 13.5759 7.03125H11.2365Z" fill="black"/>
</g>
</g>
<defs>
<clipPath id="clip0_1_276">
<rect width="15" height="15" fill="white"/>
</clipPath>
<clipPath id="clip1_1_276">
<rect width="15" height="15" fill="white"/>
</clipPath>
</defs>
</svg>
