<svg width="10" height="6" viewBox="0 0 10 6" fill="none" xmlns="http://www.w3.org/2000/svg">
<path d="M9.9 1.07L5.23 5.73C5.17 5.80333 5.09333 5.84 5 5.84C4.90667 5.84 4.83 5.80333 4.77 5.73L0.1 1.07C0.0333333 1.00333 0 0.928334 0 0.845C0 0.761667 0.0333333 0.68 0.1 0.6L0.6 0.1C0.666667 0.0333338 0.743333 4.76837e-07 0.83 4.76837e-07C0.916667 4.76837e-07 0.993333 0.0333338 1.06 0.1L5 4.04L8.94 0.1C9.00667 0.0333338 9.08333 4.76837e-07 9.17 4.76837e-07C9.25667 4.76837e-07 9.33333 0.0333338 9.4 0.1L9.9 0.6C9.96667 0.68 10 0.761667 10 0.845C10 0.928334 9.96667 1.00333 9.9 1.07Z" fill="#333333"/>
</svg>
